<svg width="59" height="45" viewBox="0 0 59 45" xmlns="http://www.w3.org/2000/svg"><g fill-rule="nonzero" fill="#394953"><path d="M55.07 22.72H43.64v-2h11.43a1 1 0 0 0 1-1V3a1 1 0 0 0-1-1H3a1 1 0 0 0-1 1v16.72a1 1 0 0 0 1 1h11.47v2H3a3 3 0 0 1-3-3V3a3 3 0 0 1 3-3h52.07a3 3 0 0 1 3 3v16.72a3 3 0 0 1-3 3z"/><path d="M11.04 10.36h36v2h-36z"/><path d="M40.62 44.95H17.45a3.08 3.08 0 0 1-3-3.15V12.06h2v29.73a1.09 1.09 0 0 0 1 1.15h23.17a1.09 1.09 0 0 0 1-1.15V12.06h2v29.73a3.08 3.08 0 0 1-3 3.16z"/><path d="M19.64 12.06h6.08v30.99h-6.08z"/><circle transform="rotate(-74.25 36.065 13.662)" cx="36.065" cy="13.662" r="2.79"/><path d="M34.68 26.86h2.78v13.38h-2.78z"/></g></svg>